<svg xmlns="http://www.w3.org/2000/svg" width="32" height="32" viewBox="0 0 32 32">
  <!-- Sentinel tray icon master (white silhouette + alpha; tinted at
       runtime by tray_icon_render.rs). Regenerate via `pnpm icons:render`. -->
  <g transform="translate(4.575 2) scale(0.030837)">
    <path d="M365 899.2C359.8 896.5 336.1 884 331.2 881.3C301.8 865.1 280.9 852.6 269.5 844.4C266.2 842 256.1 834.8 247 828.3C206.7 799.6 168.9 766.3 142.4 736C129.3 721 105.5 691.2 98.9 681.3C90.5 668.9 71 634.7 63.6 619.5C56.2 604.2 39 559.8 35.5 547C35.2 545.6 34.5 543.1 34 541.5C31.8 533.8 28.7 522.1 28 518.5C27 513.5 25.1 504.7 23.8 499.5C21.6 490.3 17.9 471.4 15.9 459.5C4.6 392 0 262.5 6 178.5C6.6 171.3 7.4 158.6 7.8 150.2C8.3 141.8 9.1 134.6 9.6 134.2C10.1 133.7 20.4 131.4 32.5 129.1C64.1 122.9 73.8 120.7 107.8 111.4C110.6 110.6 115.6 109.3 118.8 108.5C121.9 107.6 125.8 106.5 127.5 106C175.6 91.7 225 74.1 252.8 61.4C255.7 60.1 258.3 59 258.5 59C258.7 59 261.4 57.9 264.5 56.5C275.2 51.6 280.6 49.3 285 47.4C289.5 45.6 364.9 7.7 368.2 5.6C369.9 4.6 389.6 13.8 419.5 29.8C426.9 33.7 449 44.3 457.5 48C460.2 49.2 465.2 51.5 468.5 53C471.9 54.5 481.8 58.7 490.5 62.4C499.3 66.1 507.4 69.5 508.5 70C525.6 77.5 575.6 94.7 613.5 106C616.6 107 623.6 108.9 635.5 112C639.4 113 645.2 114.6 648.5 115.5C661.5 119 678 123 688 124.9C693.8 126.1 700.5 127.4 703 127.9C705.5 128.4 710.2 129.3 713.5 130C716.8 130.7 720.8 131.6 722.4 132.1C724 132.6 726.3 133 727.6 133C731.1 133 731.7 135.2 732.4 150C732.7 157.4 733.4 170.2 734 178.5C737.2 230.3 737.6 299.5 735 344C733.1 376.4 731.9 393.4 730.9 403.5C728 433.7 728 433.9 725 454.3C723 467.4 720.7 479.7 718 492C717.6 493.9 716.7 498 716 501C715.3 504 714.4 508.3 713.9 510.5C713.4 512.7 712.6 516.5 712 519C710.9 524.5 709.5 530.3 708.1 535.2C707.5 537.3 706.6 540.5 706.1 542.2C704.3 548.9 694.5 577 692.5 581.5C691.8 583.1 690.4 586.8 689.5 589.5C688.5 592.2 687 596.3 686 598.5C685 600.7 683.4 604.5 682.3 607C676.7 620.5 655 660.2 643.4 678C631.2 696.8 612.9 719.5 586.3 748.6C569.8 766.8 526.7 804.5 503.1 821.5C461.5 851.4 432.5 869.4 392.4 890.1C369.5 901.9 370.1 901.7 365 899.2ZM383.6 811.8C401.2 802.4 432.5 783 450.1 770.6C451 770 455.1 767.2 459.1 764.4C488.7 743.9 537.1 699.2 557.6 673.5C582.4 642.5 603.8 607.5 617.3 576C625.1 557.9 628.3 550 630.6 543.3C633.1 535.8 640.3 508.7 642 500.5C642.4 498.3 643.5 494 644.3 491C645.1 488 646.3 482.6 646.9 479C647.6 475.4 648.5 470.5 649 468C649.5 465.5 650.4 459.7 651 455C651.6 450.3 652.5 443.6 653 440C655.5 421.8 655.9 417.7 659 384.2C661.6 355.8 664.5 277.9 663.5 264.5C663.2 260.1 662.5 242.6 662.1 225.7C661.6 206.8 660.9 194.5 660.2 193.8C659.3 192.9 653.6 191.3 643.5 189.1C632 186.6 611.6 181.8 605 179.9C600.9 178.8 596.1 177.5 594.5 177C567.4 169.7 492 142.9 471 133.2C460 128.2 453 125 452.6 125C452.2 125 445.6 122 426 112.8C421.3 110.6 413.5 107 408.7 104.8C403.8 102.6 396 98.6 391.2 95.8C370.2 83.7 370.8 83.7 354.6 92.7C342.8 99.2 330.7 105.4 320.5 110C317.8 111.2 310.4 114.7 304.2 117.6C298 120.6 292.7 123 292.5 123C292.2 123 289.5 124.2 286.3 125.6C283.1 127 279.1 128.8 277.5 129.5C275.9 130.3 270.5 132.7 265.7 134.9C260.8 137.2 256.4 139 255.9 139C255.4 139 254.2 139.4 253.2 139.9C245.9 143.8 229.8 149.7 197.2 160.6C162.7 172 146.4 177.2 135.5 180C131.7 181 126 182.5 123 183.3C120 184.1 114.8 185.3 111.5 186C108.2 186.7 104.2 187.6 102.5 188C100.8 188.4 96.8 189.3 93.5 190C90.2 190.7 85.7 191.7 83.5 192.4L79.5 193.5 78.8 204.5C76.1 245.1 76.2 303 79 354C80.8 387.1 83 409.6 87 438C87.5 441.6 88.4 448.6 89 453.5C89.6 458.4 90.5 464.8 91.1 467.5C92.6 475.8 95.2 488.3 96.1 492C96.5 493.9 97.4 497.5 97.9 500C98.5 502.5 99.9 508.1 101.1 512.5C102.2 516.9 103.5 522.4 104 524.6C105.2 530.3 113.7 555.2 116.7 562C118.1 565 119.9 569.1 120.7 571C122.6 575.5 124.6 579.8 131.5 594.4C140.9 614.5 148.3 626.2 174.3 662.8C189.2 683.7 227.4 722.2 257.1 746.1C275.6 761.1 323.9 793.8 342 803.6C348.9 807.3 357.2 811.8 360.5 813.6C369 818.3 371.8 818.1 383.6 811.8ZM368 747.6C352.3 740.5 297.9 701.8 272 679.3C257 666.3 231 638 217.6 620C205.6 604.1 182.2 563.5 177 549.5C176.5 548.4 175.5 545.9 174.7 544C171.1 535.9 159.2 498.2 157 488C156.3 485 155.4 481.2 154.9 479.6C153.6 475.5 153.8 472 155.2 472C156.5 472 164.6 474.5 168.5 476.1C181.1 481.2 226.7 497.7 237.5 501C241.3 502.2 245 503.3 245.7 503.5C247 503.9 248.9 507.9 251.5 515.7C259 537.8 282.1 573 305 597.4C322.8 616.2 364.7 650 370.4 650C376.2 650 422.5 612.2 438.2 594.5C460.9 569.1 483 535.3 483 525.9C483 522.6 482.7 522.4 470 518.1C464.8 516.3 459.1 514.2 457.5 513.5C453 511.5 441.7 507.5 386 488C376.9 484.9 368.8 482 368 481.7C364.9 480.6 338.3 471.1 334 469.6C331.5 468.8 324.3 466.2 318 464C293.6 455.2 261.3 443.8 245 438.4C239.2 436.4 223.2 430.8 209.5 425.8C180.5 415.4 154 406.2 149 405C143.3 403.6 142.4 401.5 141.7 388.8C141.3 382.6 140.6 370.1 140 361C137.6 320.8 136.2 255.4 137.7 246.7C138.4 242.4 139.1 242 148 240C157.2 238 173.8 233.1 187.5 228.4C194.7 225.9 202.8 223.2 205.5 222.3C208.2 221.5 211.4 220.4 212.5 220C213.6 219.6 219 217.8 224.5 216.1C251.9 207.3 272.8 198.9 326.7 174.9C329.1 173.8 331.3 173 331.6 173C332.1 173 341.1 168.5 365.4 156.2L370.3 153.7 390.4 163.8C401.5 169.4 415 175.8 420.5 178.1C426 180.3 432.9 183.3 435.8 184.6C438.7 185.9 441.2 187 441.4 187C441.6 187 445.8 188.8 450.7 191.1C464.3 197.3 465 197.6 473.4 201C483.1 204.8 496.4 209.5 504.5 212C509.3 213.5 536.6 222.9 546.5 226.5C558.8 230.9 594.2 241 597.5 241C598.7 241 600.5 241.8 601.4 242.9C604.6 246.4 603.1 316.1 598.1 394.3C597.7 401.3 596.8 407.6 596.3 408.1C595.5 408.9 593.1 408.4 587.8 406.5C583.8 405 574.4 401.7 567 399.3C559.6 396.8 552.6 394.4 551.5 394C546 391.8 532.6 386.8 525.8 384.4C515.2 380.8 515.6 381.6 516.8 364.8C517.4 356.9 518.2 340.6 518.6 328.5C519.4 302.5 520.5 305 505 300C499.2 298.1 490.2 294.8 485 292.7C473.1 287.9 429.1 271 428.5 271C428.3 271 425.1 269.6 421.5 268C417.9 266.3 414.7 265 414.4 265C414.1 265 407.7 262 400.2 258.4C379.9 248.5 372 245 370 245C368.3 245 363.4 247.2 335 260.5C326.5 264.5 314.3 269.8 308 272.3C289 279.7 275.8 284.7 271 286.3C268.5 287.1 261.8 289.7 256 292C250.2 294.3 243.5 296.8 241 297.6C238.5 298.4 235.6 299.5 234.5 299.9C233.4 300.4 230.5 301.3 228 302.1C225.5 302.8 222.9 304 222.2 304.9C220.9 306.5 220.7 319.7 221.9 335.4L222.5 344.3 239.5 350C256.1 355.6 290.5 367.6 302.5 371.9C305.8 373.1 313.7 375.9 320 378C326.3 380.1 338 384.2 346 387C354 389.9 361.6 392.6 363 393C367.5 394.5 405.4 407.7 411.5 409.9C414.8 411.1 421.3 413.4 426 415C430.7 416.6 441 420.2 449 423C457 425.8 468.7 429.9 475 432C481.3 434.1 491.7 437.7 498 440C504.3 442.2 517.1 446.7 526.5 450C547.8 457.4 576.2 467.3 581.5 469.2C586.1 470.9 587.1 474.3 585.1 481.2C584.5 483.3 583.6 486.7 583 488.8C574.6 520.9 565.6 546.7 557.3 562.5C527.2 620.1 501.7 651.5 450.5 694C437.6 704.7 396.6 733.4 381.5 742.2C377.6 744.5 373.6 746.9 372.5 747.5C371 748.5 369.9 748.5 368 747.6Z" fill="#FFFFFF" fill-rule="evenodd"/>
  </g>
</svg>
